<mxfile host="app.diagrams.net" modified="2020-11-04T09:32:37.322Z" agent="5.0 (Windows NT 10.0; Win64; x64) AppleWebKit/537.36 (KHTML, like Gecko) Chrome/85.0.4183.102 Safari/537.36" etag="D2TgtyQ-8owNXh3Kk3rH" version="13.8.8" type="github">
  <diagram id="gCvyrY2m4uqeDe01h3Mi" name="Page-1">
    <mxGraphModel dx="2249" dy="713" grid="1" gridSize="10" guides="1" tooltips="1" connect="1" arrows="1" fold="1" page="1" pageScale="1" pageWidth="827" pageHeight="1169" math="0" shadow="0">
      <root>
        <mxCell id="0" />
        <mxCell id="1" parent="0" />
        <mxCell id="Z1k0xj3lT9rNJoiL3OVD-3" value="" style="edgeStyle=orthogonalEdgeStyle;rounded=0;orthogonalLoop=1;jettySize=auto;html=1;strokeColor=#000000;" edge="1" parent="1" source="Z1k0xj3lT9rNJoiL3OVD-4" target="Z1k0xj3lT9rNJoiL3OVD-9">
          <mxGeometry relative="1" as="geometry" />
        </mxCell>
        <mxCell id="Z1k0xj3lT9rNJoiL3OVD-4" value="" style="html=1;whiteSpace=wrap;fillColor=#ffff99;shape=mxgraph.archimate3.actor;fontSize=14;" vertex="1" parent="1">
          <mxGeometry x="-150" y="142.5" width="50" height="95" as="geometry" />
        </mxCell>
        <mxCell id="Z1k0xj3lT9rNJoiL3OVD-6" value="" style="edgeStyle=orthogonalEdgeStyle;rounded=0;orthogonalLoop=1;jettySize=auto;html=1;strokeColor=#000000;" edge="1" parent="1" source="Z1k0xj3lT9rNJoiL3OVD-7" target="Z1k0xj3lT9rNJoiL3OVD-29">
          <mxGeometry relative="1" as="geometry" />
        </mxCell>
        <mxCell id="Z1k0xj3lT9rNJoiL3OVD-36" style="edgeStyle=orthogonalEdgeStyle;rounded=0;orthogonalLoop=1;jettySize=auto;html=1;exitX=1;exitY=0.5;exitDx=0;exitDy=0;entryX=0;entryY=0.5;entryDx=0;entryDy=0;" edge="1" parent="1" source="Z1k0xj3lT9rNJoiL3OVD-7" target="Z1k0xj3lT9rNJoiL3OVD-12">
          <mxGeometry relative="1" as="geometry" />
        </mxCell>
        <mxCell id="Z1k0xj3lT9rNJoiL3OVD-7" value="帧数据处理服务" style="rounded=0;whiteSpace=wrap;html=1;fillColor=#ffe6cc;strokeColor=#d79b00;" vertex="1" parent="1">
          <mxGeometry x="190" y="300" width="110" height="60" as="geometry" />
        </mxCell>
        <mxCell id="Z1k0xj3lT9rNJoiL3OVD-8" style="edgeStyle=orthogonalEdgeStyle;rounded=0;orthogonalLoop=1;jettySize=auto;html=1;exitX=0.5;exitY=1;exitDx=0;exitDy=0;entryX=0.5;entryY=0;entryDx=0;entryDy=0;strokeColor=#000000;" edge="1" parent="1" source="Z1k0xj3lT9rNJoiL3OVD-9" target="Z1k0xj3lT9rNJoiL3OVD-21">
          <mxGeometry relative="1" as="geometry" />
        </mxCell>
        <mxCell id="Z1k0xj3lT9rNJoiL3OVD-9" value="游戏后台" style="rounded=0;whiteSpace=wrap;html=1;fillColor=#d5e8d4;strokeColor=#82b366;" vertex="1" parent="1">
          <mxGeometry x="10" y="160" width="120" height="60" as="geometry" />
        </mxCell>
        <mxCell id="Z1k0xj3lT9rNJoiL3OVD-37" value="" style="edgeStyle=orthogonalEdgeStyle;rounded=0;orthogonalLoop=1;jettySize=auto;html=1;" edge="1" parent="1" source="Z1k0xj3lT9rNJoiL3OVD-12" target="Z1k0xj3lT9rNJoiL3OVD-13">
          <mxGeometry relative="1" as="geometry" />
        </mxCell>
        <mxCell id="Z1k0xj3lT9rNJoiL3OVD-12" value="游戏客户端&lt;br&gt;回放数据" style="rounded=0;whiteSpace=wrap;html=1;fillColor=#d5e8d4;strokeColor=#82b366;" vertex="1" parent="1">
          <mxGeometry x="354" y="300" width="120" height="60" as="geometry" />
        </mxCell>
        <mxCell id="Z1k0xj3lT9rNJoiL3OVD-40" value="" style="edgeStyle=orthogonalEdgeStyle;rounded=0;orthogonalLoop=1;jettySize=auto;html=1;" edge="1" parent="1" source="Z1k0xj3lT9rNJoiL3OVD-13" target="Z1k0xj3lT9rNJoiL3OVD-39">
          <mxGeometry relative="1" as="geometry" />
        </mxCell>
        <mxCell id="Z1k0xj3lT9rNJoiL3OVD-13" value="录屏" style="rounded=0;whiteSpace=wrap;html=1;fillColor=#ffe6cc;strokeColor=#d79b00;" vertex="1" parent="1">
          <mxGeometry x="520" y="300" width="70" height="60" as="geometry" />
        </mxCell>
        <mxCell id="Z1k0xj3lT9rNJoiL3OVD-17" value="CDN" style="rounded=0;whiteSpace=wrap;html=1;fillColor=#ffe6cc;strokeColor=#d79b00;" vertex="1" parent="1">
          <mxGeometry x="827" y="302.5" width="70" height="55" as="geometry" />
        </mxCell>
        <mxCell id="Z1k0xj3lT9rNJoiL3OVD-19" value="" style="edgeStyle=orthogonalEdgeStyle;rounded=0;orthogonalLoop=1;jettySize=auto;html=1;strokeColor=#000000;" edge="1" parent="1" source="Z1k0xj3lT9rNJoiL3OVD-21" target="Z1k0xj3lT9rNJoiL3OVD-7">
          <mxGeometry relative="1" as="geometry" />
        </mxCell>
        <mxCell id="Z1k0xj3lT9rNJoiL3OVD-20" value="" style="edgeStyle=orthogonalEdgeStyle;rounded=0;orthogonalLoop=1;jettySize=auto;html=1;strokeColor=#000000;" edge="1" parent="1" source="Z1k0xj3lT9rNJoiL3OVD-21" target="Z1k0xj3lT9rNJoiL3OVD-22">
          <mxGeometry relative="1" as="geometry" />
        </mxCell>
        <mxCell id="Z1k0xj3lT9rNJoiL3OVD-21" value="web服务" style="rounded=0;whiteSpace=wrap;html=1;fillColor=#ffe6cc;strokeColor=#d79b00;" vertex="1" parent="1">
          <mxGeometry x="10" y="300" width="120" height="60" as="geometry" />
        </mxCell>
        <mxCell id="Z1k0xj3lT9rNJoiL3OVD-22" value="白名单" style="rounded=0;whiteSpace=wrap;html=1;fillColor=#ffe6cc;strokeColor=#d79b00;" vertex="1" parent="1">
          <mxGeometry x="-100" y="300" width="70" height="60" as="geometry" />
        </mxCell>
        <mxCell id="Z1k0xj3lT9rNJoiL3OVD-25" value="开始游戏" style="text;html=1;strokeColor=none;fillColor=none;align=center;verticalAlign=middle;whiteSpace=wrap;rounded=0;" vertex="1" parent="1">
          <mxGeometry x="-80" y="160" width="60" height="20" as="geometry" />
        </mxCell>
        <mxCell id="Z1k0xj3lT9rNJoiL3OVD-26" value="游戏消息通知" style="text;html=1;strokeColor=none;fillColor=none;align=center;verticalAlign=middle;whiteSpace=wrap;rounded=0;" vertex="1" parent="1">
          <mxGeometry x="70" y="240" width="40" height="40" as="geometry" />
        </mxCell>
        <mxCell id="Z1k0xj3lT9rNJoiL3OVD-28" value="查询" style="text;html=1;strokeColor=none;fillColor=none;align=center;verticalAlign=middle;whiteSpace=wrap;rounded=0;" vertex="1" parent="1">
          <mxGeometry x="-50" y="310" width="90" height="20" as="geometry" />
        </mxCell>
        <mxCell id="Z1k0xj3lT9rNJoiL3OVD-29" value="游戏数据" style="rounded=0;whiteSpace=wrap;html=1;fillColor=#d5e8d4;strokeColor=#82b366;" vertex="1" parent="1">
          <mxGeometry x="190" y="160" width="110" height="60" as="geometry" />
        </mxCell>
        <mxCell id="Z1k0xj3lT9rNJoiL3OVD-30" value="" style="endArrow=none;html=1;strokeColor=#000000;dashed=1;" edge="1" parent="1">
          <mxGeometry width="50" height="50" relative="1" as="geometry">
            <mxPoint x="-150" y="240" as="sourcePoint" />
            <mxPoint x="880" y="240" as="targetPoint" />
          </mxGeometry>
        </mxCell>
        <mxCell id="Z1k0xj3lT9rNJoiL3OVD-42" value="" style="edgeStyle=orthogonalEdgeStyle;rounded=0;orthogonalLoop=1;jettySize=auto;html=1;" edge="1" parent="1" source="Z1k0xj3lT9rNJoiL3OVD-38" target="Z1k0xj3lT9rNJoiL3OVD-17">
          <mxGeometry relative="1" as="geometry" />
        </mxCell>
        <mxCell id="Z1k0xj3lT9rNJoiL3OVD-38" value="特效" style="rounded=0;whiteSpace=wrap;html=1;fillColor=#ffe6cc;strokeColor=#d79b00;" vertex="1" parent="1">
          <mxGeometry x="720" y="300" width="70" height="60" as="geometry" />
        </mxCell>
        <mxCell id="Z1k0xj3lT9rNJoiL3OVD-41" value="" style="edgeStyle=orthogonalEdgeStyle;rounded=0;orthogonalLoop=1;jettySize=auto;html=1;" edge="1" parent="1" source="Z1k0xj3lT9rNJoiL3OVD-39" target="Z1k0xj3lT9rNJoiL3OVD-38">
          <mxGeometry relative="1" as="geometry" />
        </mxCell>
        <mxCell id="Z1k0xj3lT9rNJoiL3OVD-39" value="视频剪辑" style="rounded=0;whiteSpace=wrap;html=1;fillColor=#ffe6cc;strokeColor=#d79b00;" vertex="1" parent="1">
          <mxGeometry x="620" y="300" width="70" height="60" as="geometry" />
        </mxCell>
        <mxCell id="Z1k0xj3lT9rNJoiL3OVD-43" value="数据获取" style="text;html=1;strokeColor=none;fillColor=none;align=center;verticalAlign=middle;whiteSpace=wrap;rounded=0;" vertex="1" parent="1">
          <mxGeometry x="250" y="250" width="50" height="40" as="geometry" />
        </mxCell>
      </root>
    </mxGraphModel>
  </diagram>
</mxfile>
